<svg xmlns="http://www.w3.org/2000/svg" width="85.144" height="85.144" viewBox="0 0 85.144 85.144"><defs><style>.a{fill:#ed9a02;}</style></defs><path class="a" d="M85.144,27.144,58,0,43.915,14.085l2.351,2.351L4.648,58.054A15.869,15.869,0,1,0,27.09,80.5L68.708,38.877l2.351,2.351ZM58.849,21.955l7.021-7.021,4.339,4.339-7.021,7.021Zm14.892.849,4.339,4.339-7.021,7.021L66.72,29.826ZM58,7.063,62.339,11.4l-7.021,7.021-4.339-4.339ZM37.132,32.633,52.511,48.011,37.221,63.3,21.843,47.922ZM23.558,76.964A10.874,10.874,0,1,1,8.18,61.585L18.311,51.454,33.69,66.832ZM56.043,44.48,40.664,29.1,49.8,19.967,65.177,35.346Z" transform="translate(0)"/><path class="a" d="M188,261.036l3.532,3.532,2.348-2.348,2.347,2.348,3.532-3.532-2.348-2.348,2.348-2.348-3.532-3.531-2.347,2.347-2.348-2.347L188,256.341l2.348,2.348Z" transform="translate(-156.699 -210.722)"/></svg>