<?xml version="1.0" encoding="utf-8"?>
<!-- Generator: Adobe Illustrator 24.1.1, SVG Export Plug-In . SVG Version: 6.00 Build 0)  -->
<svg version="1.1" id="Layer_1" xmlns="http://www.w3.org/2000/svg" xmlns:xlink="http://www.w3.org/1999/xlink" x="0px" y="0px"
	 viewBox="0 0 85.1 85.1" style="enable-background:new 0 0 85.1 85.1;" xml:space="preserve">
<style type="text/css">
	.st0{fill:#ED9A29;}
</style>
<g id="Grupo_326" transform="translate(-0.463 -0.418)">
	<path id="Exclusión_2" class="st0" d="M34.6,85.6L34.6,85.6l-5.4-9.1l-10.3,2.7l-1.5-10.5L6.9,67.1l2.7-10.3l-9.1-5.4L6.8,43
		l-6.4-8.5l9.1-5.4L6.9,18.9l10.5-1.5l1.5-10.5l10.3,2.7l5.4-9.1L43,6.8l8.5-6.4l5.4,9.1l10.3-2.7l1.5,10.5l10.5,1.5l-2.7,10.3
		l9.1,5.4L79.2,43l6.4,8.5l-9.1,5.4l2.7,10.3l-10.5,1.5l-1.5,10.5l-10.3-2.7l-5.4,9.1L43,79.2L34.6,85.6L34.6,85.6z M49.6,39.8
		c-1.2,0-2.3,0.3-3.3,0.9c-1,0.6-1.8,1.4-2.3,2.5c-1.1,2.4-1.1,5.1,0,7.5c0.5,1,1.3,1.9,2.3,2.5c1,0.6,2.1,0.9,3.3,0.9
		c1.7,0.1,3.4-0.6,4.6-1.9c1.2-1.4,1.9-3.3,1.8-5.2c0.1-1.9-0.5-3.7-1.8-5.2C53,40.4,51.3,39.7,49.6,39.8z M47.5,28L29.9,53.7h4.4
		L51.8,28L47.5,28z M32.2,27.7c-1.7-0.1-3.4,0.6-4.6,1.9c-1.2,1.4-1.9,3.3-1.8,5.2c-0.1,1.9,0.5,3.7,1.8,5.2c1.2,1.3,2.9,2,4.6,1.9
		c1.7,0.1,3.4-0.6,4.6-1.9c1.2-1.4,1.9-3.3,1.8-5.2c0.1-1.9-0.5-3.7-1.8-5.1C35.6,28.3,33.9,27.6,32.2,27.7z M49.6,51
		c-0.8,0-1.5-0.4-1.9-1c-0.5-0.9-0.8-2-0.7-3c-0.1-1.1,0.2-2.1,0.7-3c0.7-1.1,2.2-1.4,3.3-0.6c0.2,0.2,0.5,0.4,0.6,0.6
		c0.5,0.9,0.8,2,0.7,3c0.1,1.1-0.2,2.1-0.7,3C51.1,50.6,50.4,51,49.6,51z M32.2,38.8c-0.8,0-1.5-0.4-1.9-1c-0.5-0.9-0.8-2-0.7-3
		c-0.1-1.1,0.2-2.1,0.7-3c0.7-1.1,2.2-1.4,3.3-0.6c0.2,0.2,0.5,0.4,0.6,0.6c0.5,0.9,0.8,2,0.7,3c0.1,1.1-0.2,2.1-0.7,3
		C33.7,38.5,33,38.9,32.2,38.8z"/>
</g>
</svg>
