<svg xmlns="http://www.w3.org/2000/svg" width="73.493" height="85.144" viewBox="0 0 73.493 85.144"><defs><style>.a{fill:#ed9a02;}</style></defs><path class="a" d="M92.015,0H35.028V85.144h73.493V16.507Zm1.461,8.517L100,15.046H93.476ZM40.017,80.155V4.989h48.47V20.035h15.046v60.12Z" transform="translate(-35.028)"/><path class="a" d="M95.064,241.2H148.59v4.989H95.064Z" transform="translate(-85.08 -201.091)"/><path class="a" d="M95.064,120.5h16.777v4.989H95.064Z" transform="translate(-85.08 -100.461)"/><path class="a" d="M95.064,60.25h16.777v4.989H95.064Z" transform="translate(-85.08 -50.231)"/><path class="a" d="M148.6,301.25H95.076v25.028H148.6Zm-4.989,10.019H110.051v-5.03h33.559Zm-43.544-5.03h5v5.03h-5Zm0,10.019h5v5.03h-5Zm43.544,5.03H110.051v-5.03h33.559Z" transform="translate(-85.09 -251.153)"/></svg>