<svg xmlns="http://www.w3.org/2000/svg" width="96.502" height="99.109" viewBox="0 0 96.502 99.109"><defs><style>.a{fill:#ed9a02;}</style></defs><path class="a" d="M82.279,5.022V0H42.8V5.022H21.843V64.7l-7.7,5.052A16.372,16.372,0,0,0,6.734,83.484V99.109h96.5V5.022Zm-25.4,76.666A16.368,16.368,0,0,0,55.1,75.835h21.1V70.028H49.97c-.132-.092-.265-.183-.4-.272l-7.7-5.052V40.128H39.265V22.443h46.55V81.687Zm19.59-75.88V16.636H48.607V5.807ZM27.65,10.829H42.8v5.807H33.457V40.128H27.65Zm0,57.011v-21.9h8.414v21.9l10.319,6.772a10.675,10.675,0,0,1,1.51,1.2H15.821a10.673,10.673,0,0,1,1.51-1.2ZM24.747,93.3H12.541V83.484a10.661,10.661,0,0,1,.167-1.865h38.3a10.68,10.68,0,0,1,.167,1.865V93.3Zm72.682,0H56.981V87.495h34.64V16.636H82.279V10.829h15.15Z" transform="translate(-6.734)"/><path class="a" d="M224.492,301.534H251.8v5.807H224.492Z" transform="translate(-182.34 -243.165)"/><path class="a" d="M224.492,241.3H251.8v5.807H224.492Z" transform="translate(-182.34 -194.592)"/><path class="a" d="M243.868,146.556h-5.689l-3.4,5.662-2.791-3.482h-7.493v5.807H229.2l3.608,4.5h4.642l3.839-6.386,3.209,4.065h7.3v-5.807H247.31Z" transform="translate(-182.34 -118.187)"/></svg>