<svg id="logo" xmlns="http://www.w3.org/2000/svg" width="188.517" height="137" viewBox="0 0 188.517 137">
  <path id="Trazado_5" data-name="Trazado 5" d="M437.77,158.56h15.182v77.477c0,4.133,2.709,6.521,5.743,6.521h26.251v10.326H444.975c-4.342-.525-7.255-2.336-7.255-8.5Z" transform="translate(-437.72 -158.56)" fill="#fff"/>
  <path id="Trazado_6" data-name="Trazado 6" d="M1315.893,363.1v-25.08c-.283-3.935,2.019-6.311,6.021-6.273h14.29c4.1-.038,6.334,2.336,6.015,6.273v25.156c-.054,4.013-2.064,5.547-5.113,5.391v18.012c-.167,4.384-1.853,7.755-5.754,8.38l-4.263.047c-5.034-1.281-5.781-4.692-5.949-8.427l.047-17.929c-4.215-.259-5.293-2.537-5.293-5.549" transform="translate(-1157.978 -300.628)" fill="#fff"/>
  <path id="Trazado_7" data-name="Trazado 7" d="M1048.823,331.683a21.585,21.585,0,0,0-8.168,5.47l.124-.9-.112-4.986-15.057.02v84.14h15.283V389.246c7.574,5.045,17.058,8.023,24.525-1.3,16.52-27.724,2.518-62.966-16.59-56.258m1.089,47.9c-5.165,0-9.364-7.574-9.364-16.891s4.2-16.891,9.364-16.891,9.38,7.56,9.38,16.891-4.2,16.891-9.38,16.891" transform="translate(-919.907 -299.893)" fill="#fff"/>
  <path id="Trazado_8" data-name="Trazado 8" d="M733.6,338.752l-.234,15.322c9.272-10.391,26.769-8.957,26.945,5.54-19.221-14.542-37.038,3.308-30.337,24.1,5.448,13.088,17.92,16.815,30.265,8.048v5.2h15.809V352.507c-1.518-18.127-26.492-23.843-42.448-13.755m23.865,38.83c-.478,3.858-2.337,5.644-5.056,5.75-1.559.016-3.177.05-4.914,0-3.091-.208-4.745-2.282-5.441-5.356a21.971,21.971,0,0,1-.055-4.183,6.659,6.659,0,0,1,5.636-5.919,24.581,24.581,0,0,1,4.116,0c3.177.6,5.236,2.156,5.714,5.031a16.731,16.731,0,0,1,0,4.672" transform="translate(-676.247 -302.317)" fill="#fff"/>
  <path id="Trazado_9" data-name="Trazado 9" d="M442.556,715.27h90.725a4.6,4.6,0,0,1,4.551,4.574v6.42a4.6,4.6,0,0,1-4.551,4.577H442.556A4.6,4.6,0,0,1,438,726.263v-6.42a4.6,4.6,0,0,1,4.565-4.573" transform="translate(-437.95 -615.237)" fill="#fff"/>
  <path id="Trazado_10" data-name="Trazado 10" d="M1355.425,225.256a9.207,9.207,0,1,1-9.213-9.186,9.2,9.2,0,0,1,9.213,9.186" transform="translate(-1175.317 -205.736)" fill="#fff"/>
  <path id="Trazado_11" data-name="Trazado 11" d="M1447.063,642.79a3.446,3.446,0,1,1-.009,0m0,6.347a2.926,2.926,0,1,1,.013,0" transform="translate(-1262.742 -555.78)" fill="#fff"/>
  <path id="Trazado_12" data-name="Trazado 12" d="M1454,654.336v-4.247h1.885a2.469,2.469,0,0,1,.86.113.91.91,0,0,1,.47.4,1.125,1.125,0,0,1,.179.649,1.007,1.007,0,0,1-.29.759,1.424,1.424,0,0,1-.9.391.956.956,0,0,1,.327.206,2.785,2.785,0,0,1,.48.588l.744,1.144h-.7l-.589-.9a3.607,3.607,0,0,0-.4-.579,1.627,1.627,0,0,0-.272-.274.834.834,0,0,0-.252-.115h-.969v1.876Zm.573-2.379h1.207a1.913,1.913,0,0,0,.6-.078.559.559,0,0,0,.323-.262.637.637,0,0,0,.112-.37.647.647,0,0,0-.215-.5,1.053,1.053,0,0,0-.683-.192h-1.345Z" transform="translate(-1271.272 -561.766)" fill="#fff"/>
  <path id="Trazado_13" data-name="Trazado 13" d="M468.79,735.431l.516-1.317a4.007,4.007,0,0,0,1,.49,3.081,3.081,0,0,0,1.079.194,1.939,1.939,0,0,0,1.331-.451,1.549,1.549,0,0,0,.5-1.155,1.821,1.821,0,0,0-.288-.987,3.556,3.556,0,0,0-1.4-.974l-.845-.392a3.315,3.315,0,0,1-1.5-1.17,3.226,3.226,0,0,1-.414-1.651,2.472,2.472,0,0,1,.827-1.923,2.976,2.976,0,0,1,2.1-.766,3.923,3.923,0,0,1,2.425.556l-.43,1.247a3.768,3.768,0,0,0-.865-.4,4.006,4.006,0,0,0-1.079-.2,1.593,1.593,0,0,0-1.145.408,1.451,1.451,0,0,0-.417,1.068,1.541,1.541,0,0,0,.149.718,1.349,1.349,0,0,0,.421.55,5.428,5.428,0,0,0,1.079.616l.856.406a2.858,2.858,0,0,1,1.9,2.972,2.585,2.585,0,0,1-.926,2,3.706,3.706,0,0,1-2.517.825,4.232,4.232,0,0,1-2.37-.656" transform="translate(-463.182 -623.488)" fill="#fff"/>
  <path id="Trazado_14" data-name="Trazado 14" d="M512.37,747.891a3.059,3.059,0,0,1-2.487,1,2.08,2.08,0,0,1-1.552-.649,2.155,2.155,0,0,1-.674-1.617,2.482,2.482,0,0,1,1.023-1.96,3.972,3.972,0,0,1,2.582-.8,2.99,2.99,0,0,1,.958.192c0-1.24-.539-1.849-1.643-1.849a2.682,2.682,0,0,0-1.956.685l-.571-1.14a3.462,3.462,0,0,1,1.079-.539,4.807,4.807,0,0,1,1.287-.217,2.726,2.726,0,0,1,3.155,3.158v2.725a1.42,1.42,0,0,0,.592,1.332v.677a2.413,2.413,0,0,1-1.223-.235,1.293,1.293,0,0,1-.574-.769m-.149-2.875a5.243,5.243,0,0,0-.9-.148,2.5,2.5,0,0,0-1.654.54,1.529,1.529,0,0,0-.658,1.227c0,.8.482,1.2,1.412,1.2a2.289,2.289,0,0,0,1.8-.991Z" transform="translate(-495.082 -636.344)" fill="#fff"/>
  <path id="Trazado_15" data-name="Trazado 15" d="M553,733.033V724.46h1.361V732.8a1.247,1.247,0,0,0,.359.967,1.211,1.211,0,0,0,.9.359v1.2c-1.747,0-2.619-.755-2.619-2.294" transform="translate(-532.272 -622.776)" fill="#fff"/>
  <path id="Trazado_16" data-name="Trazado 16" d="M577.243,741.9v4.841c0,1.17.518,1.772,1.528,1.772a2.007,2.007,0,0,0,1.226-.4,1.8,1.8,0,0,0,.741-.884V741.9h1.332v7.59h-1.332V748.45a2.268,2.268,0,0,1-.912.819,2.966,2.966,0,0,1-1.355.359,2.46,2.46,0,0,1-1.911-.718,2.891,2.891,0,0,1-.66-2.04V741.9Z" transform="translate(-551.055 -637.082)" fill="#fff"/>
  <path id="Trazado_17" data-name="Trazado 17" d="M623.373,735.184v-.564a2.734,2.734,0,0,1-2.04.719,2.894,2.894,0,0,1-2.311-1.028,3.98,3.98,0,0,1-.9-2.727,4.36,4.36,0,0,1,1.022-2.92,3.078,3.078,0,0,1,2.425-1.217,2.566,2.566,0,0,1,1.8.568V724.46h1.362v10.724Zm0-5.838a1.6,1.6,0,0,0-1.4-.774,2.172,2.172,0,0,0-1.747.815,3.1,3.1,0,0,0-.676,2.065c0,1.826.825,2.75,2.5,2.75a1.8,1.8,0,0,0,.748-.2,1.051,1.051,0,0,0,.575-.451Z" transform="translate(-585.685 -622.776)" fill="#fff"/>
  <rect id="Rectángulo_3" data-name="Rectángulo 3" width="1.42" height="10.393" transform="translate(45.711 102.015)" fill="#fff"/>
  <path id="Trazado_18" data-name="Trazado 18" d="M717.269,748.768v-4.424a2.988,2.988,0,0,0-.359-1.7,1.415,1.415,0,0,0-1.221-.5,2.291,2.291,0,0,0-.978.284,2.264,2.264,0,0,0-.77.694v5.644H712.6v-7.59h.9l.435.969a2.331,2.331,0,0,1,2.186-1.127c1.683,0,2.518,1.017,2.518,3.055v4.7Z" transform="translate(-663.176 -636.36)" fill="#fff"/>
  <path id="Trazado_19" data-name="Trazado 19" d="M755.44,733.279h-.87V732.22h.87V730.6l1.358-.5v2.12h2.086v1.058H756.8v3.773a2.106,2.106,0,0,0,.316,1.361,1.283,1.283,0,0,0,1.045.417,2.671,2.671,0,0,0,1.079-.265l.189,1.179a7.3,7.3,0,0,1-1.84.211,2.005,2.005,0,0,1-1.524-.67,2.514,2.514,0,0,1-.622-1.692Z" transform="translate(-697.6 -627.402)" fill="#fff"/>
  <path id="Trazado_20" data-name="Trazado 20" d="M792.937,745.082h-5.482a2.67,2.67,0,0,0,.732,2.045,2.248,2.248,0,0,0,1.67.642,2.859,2.859,0,0,0,1.918-.676l.567.974a2.262,2.262,0,0,1-.964.525,4.907,4.907,0,0,1-1.8.3,3.34,3.34,0,0,1-2.432-.959,3.828,3.828,0,0,1-1.128-2.875,4.071,4.071,0,0,1,1.144-3.03A3.325,3.325,0,0,1,789.6,741a3.511,3.511,0,0,1,2.557.922,3.2,3.2,0,0,1,.9,2.336,2.492,2.492,0,0,1-.12.819m-3.274-2.943a2.193,2.193,0,0,0-1.508.572,2.409,2.409,0,0,0-.678,1.4h4.231a1.959,1.959,0,0,0-.5-1.365,2.1,2.1,0,0,0-1.547-.6" transform="translate(-723.395 -636.343)" fill="#fff"/>
  <path id="Trazado_21" data-name="Trazado 21" d="M830.895,749.26l.719-1.078a3.966,3.966,0,0,0,2.177.786,2.9,2.9,0,0,0,1.438-.306.94.94,0,0,0,.54-.8c0-.611-.446-.908-1.338-.908a4.8,4.8,0,0,0-.821.1,6.726,6.726,0,0,1-.924.119c-1.094,0-1.63-.4-1.63-1.216a.861.861,0,0,1,.376-.69,2.22,2.22,0,0,1,.951-.438,2.664,2.664,0,0,1-1.618-2.617,2.634,2.634,0,0,1,.822-1.987,2.894,2.894,0,0,1,2.057-.8,2.958,2.958,0,0,1,1.779.473l.67-.818.884.829-.81.607a2.853,2.853,0,0,1,.524,1.777,2.75,2.75,0,0,1-2.6,2.8l-1.129.131a2.723,2.723,0,0,0-.539.151c-.216.085-.331.2-.331.336,0,.2.234.306.685.306a6.073,6.073,0,0,0,.968-.115,6.08,6.08,0,0,1,.95-.115,2.625,2.625,0,0,1,1.747.526,1.86,1.86,0,0,1,.658,1.5,1.987,1.987,0,0,1-.957,1.7,4.194,4.194,0,0,1-2.379.643,5.083,5.083,0,0,1-1.557-.257,4.224,4.224,0,0,1-1.318-.649m2.877-8.74a1.5,1.5,0,0,0-1.167.49,1.794,1.794,0,0,0-.441,1.205,1.987,1.987,0,0,0,.432,1.315,1.387,1.387,0,0,0,1.176.53,1.3,1.3,0,0,0,1.1-.5,2.053,2.053,0,0,0,.4-1.349,1.644,1.644,0,0,0-.435-1.205,1.341,1.341,0,0,0-1.061-.49" transform="translate(-760.095 -634.768)" fill="#fff"/>
  <path id="Trazado_22" data-name="Trazado 22" d="M878.32,742.456a1.667,1.667,0,0,0-.886-.316,1.613,1.613,0,0,0-1.258.67,2.378,2.378,0,0,0-.539,1.6v4.343H874.3v-7.59h1.328v1.215A2.4,2.4,0,0,1,877.841,741a6.744,6.744,0,0,1,1.045.137Z" transform="translate(-795.803 -636.344)" fill="#fff"/>
  <path id="Trazado_23" data-name="Trazado 23" d="M907.547,747.891a3.056,3.056,0,0,1-2.494,1,2.12,2.12,0,0,1-1.55-.648,2.207,2.207,0,0,1-.674-1.617,2.484,2.484,0,0,1,1.021-1.96,3.991,3.991,0,0,1,2.585-.8,3,3,0,0,1,.975.192c0-1.239-.565-1.849-1.651-1.849a2.654,2.654,0,0,0-1.945.685l-.573-1.139a3.2,3.2,0,0,1,1.078-.539A4.576,4.576,0,0,1,905.61,741a3.209,3.209,0,0,1,2.4.762,3.361,3.361,0,0,1,.751,2.4v2.726a1.387,1.387,0,0,0,.6,1.332v.677a2.491,2.491,0,0,1-1.238-.235,1.307,1.307,0,0,1-.581-.769m-.137-2.875a5.481,5.481,0,0,0-.9-.148,2.558,2.558,0,0,0-1.672.54,1.56,1.56,0,0,0-.627,1.227c0,.8.457,1.2,1.4,1.2a2.3,2.3,0,0,0,1.8-.991Z" transform="translate(-819.202 -636.344)" fill="#fff"/>
  <path id="Trazado_24" data-name="Trazado 24" d="M948.24,733.033V724.46h1.343V732.8a1.24,1.24,0,0,0,.359.967,1.261,1.261,0,0,0,.921.359v1.2c-1.733,0-2.618-.755-2.618-2.294" transform="translate(-856.448 -622.776)" fill="#fff"/>
  <path id="Trazado_25" data-name="Trazado 25" d="M7.32,694.135V679.43H9.934v12.382h6.647v2.323Z" transform="translate(-6.004 -557.346)" fill="#fff"/>
  <path id="Trazado_26" data-name="Trazado 26" d="M510.238,868.74a2.376,2.376,0,0,1-1.2.927,4.453,4.453,0,0,1-1.757.359,3.95,3.95,0,0,1-2.722-.87,3.131,3.131,0,0,1-1-2.467,3.466,3.466,0,0,1,1.4-2.931,6.433,6.433,0,0,1,3.986-1.042,4.405,4.405,0,0,1,1.05.147c0-1.269-.809-1.9-2.4-1.9a5.443,5.443,0,0,0-2.379.478l-.539-1.948a7.089,7.089,0,0,1,3.085-.622,5,5,0,0,1,3.609,1.12q1.143,1.115,1.145,4.246v2.291c0,1.452.3,2.336.852,2.7a1.257,1.257,0,0,1-.681.667,2.692,2.692,0,0,1-.863.13,1.426,1.426,0,0,1-.986-.4,2.284,2.284,0,0,1-.591-.882m-.223-3.991a6.346,6.346,0,0,0-.977-.122c-1.978,0-2.974.65-2.974,1.946,0,.963.563,1.455,1.689,1.455a2,2,0,0,0,2.262-2.258Z" transform="translate(-491.722 -733.032)" fill="#fff"/>
  <path id="Trazado_27" data-name="Trazado 27" d="M569.29,849.081l-.55.8h-1.41v-14.97l2.517-.6v5.031a4.082,4.082,0,0,1,2.187-.617,5.1,5.1,0,0,1,3.808,1.492,5.253,5.253,0,0,1,1.439,3.82,6.026,6.026,0,0,1-1.458,4.277,5.14,5.14,0,0,1-3.938,1.568,4.345,4.345,0,0,1-2.6-.8m.555-7.6V847.1a1.84,1.84,0,0,0,1.5.649,3.285,3.285,0,0,0,2.579-.859,4.113,4.113,0,0,0,.759-2.766c0-2.176-1.049-3.281-3.139-3.281a2.167,2.167,0,0,0-1.694.641" transform="translate(-544.026 -712.887)" fill="#fff"/>
  <path id="Trazado_28" data-name="Trazado 28" d="M631.044,864.4a5.711,5.711,0,0,1,1.424-4.005,4.846,4.846,0,0,1,3.758-1.547,4.916,4.916,0,0,1,3.81,1.492,6.746,6.746,0,0,1-.038,8.147,5.478,5.478,0,0,1-7.606-.013,5.867,5.867,0,0,1-1.352-4.073m2.613,0c0,2.368.852,3.556,2.569,3.556a2.225,2.225,0,0,0,1.868-.924,4.416,4.416,0,0,0,.678-2.632c0-2.336-.853-3.5-2.545-3.5a2.218,2.218,0,0,0-1.872.913,4.168,4.168,0,0,0-.7,2.584" transform="translate(-596.281 -733.018)" fill="#fff"/>
  <path id="Trazado_29" data-name="Trazado 29" d="M705.959,861.467a2.694,2.694,0,0,0-1.476-.442,1.989,1.989,0,0,0-1.542.8,2.874,2.874,0,0,0-.683,1.951v6.118H699.74V859.13h2.517v.986a3.529,3.529,0,0,1,2.8-1.176,4.076,4.076,0,0,1,1.978.379Z" transform="translate(-652.628 -733.092)" fill="#fff"/>
  <path id="Trazado_30" data-name="Trazado 30" d="M747.88,868.741a2.434,2.434,0,0,1-1.182.927,4.579,4.579,0,0,1-1.782.359,3.992,3.992,0,0,1-2.729-.869,3.09,3.09,0,0,1-.988-2.467,3.452,3.452,0,0,1,1.4-2.931,6.46,6.46,0,0,1,3.991-1.042,4.379,4.379,0,0,1,1.034.147q0-1.9-2.4-1.9a5.492,5.492,0,0,0-2.368.478l-.539-1.948a7.089,7.089,0,0,1,3.082-.622,5.007,5.007,0,0,1,3.612,1.12c.761.744,1.14,2.156,1.14,4.246v2.291c0,1.452.291,2.336.872,2.7a1.3,1.3,0,0,1-.7.667,2.757,2.757,0,0,1-.879.129,1.394,1.394,0,0,1-.964-.4,2.2,2.2,0,0,1-.593-.882m-.246-3.987a5.934,5.934,0,0,0-.962-.122c-1.978,0-2.975.651-2.975,1.946,0,.963.561,1.455,1.679,1.455a1.994,1.994,0,0,0,2.258-2.259Z" transform="translate(-686.634 -733.033)" fill="#fff"/>
  <path id="Trazado_31" data-name="Trazado 31" d="M802.482,847.762H801.24v-2.011h1.242v-2.2L805,842.63v3.121h2.956v2.011H805v4.706a2.535,2.535,0,0,0,.377,1.617,1.4,1.4,0,0,0,1.237.485,3.149,3.149,0,0,0,1.706-.489v2.3a7.448,7.448,0,0,1-2.5.309,3.219,3.219,0,0,1-2.458-.913,3.7,3.7,0,0,1-.872-2.588Z" transform="translate(-735.879 -719.712)" fill="#fff"/>
  <path id="Trazado_32" data-name="Trazado 32" d="M847.55,864.4a5.7,5.7,0,0,1,1.415-4.005,4.812,4.812,0,0,1,3.754-1.547,4.885,4.885,0,0,1,3.808,1.492,5.8,5.8,0,0,1,1.356,4.061,5.9,5.9,0,0,1-1.37,4.086,5.476,5.476,0,0,1-7.6-.013,5.9,5.9,0,0,1-1.359-4.073m2.605,0c0,2.368.85,3.556,2.564,3.556a2.209,2.209,0,0,0,1.872-.924,4.524,4.524,0,0,0,.677-2.632c0-2.336-.863-3.5-2.549-3.5a2.237,2.237,0,0,0-1.877.913,4.252,4.252,0,0,0-.687,2.584" transform="translate(-773.862 -733.018)" fill="#fff"/>
  <path id="Trazado_33" data-name="Trazado 33" d="M922.409,861.467a2.693,2.693,0,0,0-1.471-.442,2.055,2.055,0,0,0-1.562.8,2.986,2.986,0,0,0-.669,1.951v6.118H916.19V859.13h2.517v.986a3.526,3.526,0,0,1,2.792-1.176,4.019,4.019,0,0,1,1.977.379Z" transform="translate(-830.161 -733.092)" fill="#fff"/>
  <path id="Trazado_34" data-name="Trazado 34" d="M962.533,851.744v-8.695H961.17v-2.056h3.925v10.751Zm1.323-14.914a1.459,1.459,0,0,1,1.031.426,1.443,1.443,0,0,1,.417,1.025,1.48,1.48,0,0,1-.417,1.042,1.514,1.514,0,0,1-1.031.428,1.477,1.477,0,0,1-1.47-1.47,1.474,1.474,0,0,1,1.47-1.45" transform="translate(-867.053 -714.955)" fill="#fff"/>
  <path id="Trazado_35" data-name="Trazado 35" d="M995.3,864.4a5.71,5.71,0,0,1,1.422-4.005,4.851,4.851,0,0,1,3.758-1.547,4.941,4.941,0,0,1,3.81,1.492,6.737,6.737,0,0,1-.037,8.147,4.829,4.829,0,0,1-3.776,1.528,4.912,4.912,0,0,1-3.826-1.541A5.824,5.824,0,0,1,995.3,864.4m2.612,0q0,3.552,2.568,3.556a2.234,2.234,0,0,0,1.872-.924,4.415,4.415,0,0,0,.678-2.632c0-2.336-.854-3.5-2.55-3.5a2.205,2.205,0,0,0-1.866.913,4.171,4.171,0,0,0-.7,2.584" transform="translate(-895.046 -733.018)" fill="#fff"/>
  <path id="Trazado_36" data-name="Trazado 36" d="M669.4,694.143h-2.512l-1.541-7.922-2.958,8.125h-.924l-2.978-8.125-1.594,7.922H654.38l2.954-14.712h1.388l3.175,9.9,3.118-9.9h1.4Z" transform="translate(-536.722 -557.346)" fill="#fff"/>
  <path id="Trazado_37" data-name="Trazado 37" d="M1190.265,846.106h-7.682a2.738,2.738,0,0,0,.889,2,3.19,3.19,0,0,0,2.189.719,3.554,3.554,0,0,0,2.607-.9l1,1.917a6.256,6.256,0,0,1-3.955,1.078,5.179,5.179,0,0,1-3.906-1.454,5.411,5.411,0,0,1-1.423-4.01,5.554,5.554,0,0,1,1.56-4.108,5.518,5.518,0,0,1,7.536-.192,4.817,4.817,0,0,1,1.415,3.565,6.013,6.013,0,0,1-.209,1.387m-7.6-1.876h5.285a2.367,2.367,0,0,0-2.6-2.379,2.591,2.591,0,0,0-2.683,2.379m5.641-8.652-2.274,2.95h-1.9l1.706-2.945Z" transform="translate(-1046.521 -713.929)" fill="#fff"/>
  <path id="Trazado_38" data-name="Trazado 38" d="M1254.168,849.71v-.649a2.785,2.785,0,0,1-1.054.589,4.582,4.582,0,0,1-1.541.259,4.5,4.5,0,0,1-3.547-1.427,5.724,5.724,0,0,1-1.3-3.986,5.856,5.856,0,0,1,1.468-4.133,4.906,4.906,0,0,1,3.741-1.606,4.962,4.962,0,0,1,2.229.5v-4.313l2.517-.6v15.367Zm0-8.189a2.661,2.661,0,0,0-1.686-.649,3,3,0,0,0-2.337.922,3.788,3.788,0,0,0-.813,2.65q0,3.342,3.237,3.342a2.65,2.65,0,0,0,.9-.205,2.088,2.088,0,0,0,.7-.445Z" transform="translate(-1101.27 -712.92)" fill="#fff"/>
  <path id="Trazado_39" data-name="Trazado 39" d="M1313.453,851.742v-8.7h-1.364v-2.055h3.923v10.75Zm1.307-14.914a1.439,1.439,0,0,1,1.035.426,1.389,1.389,0,0,1,.429,1.025,1.426,1.426,0,0,1-.429,1.042,1.487,1.487,0,0,1-1.035.428,1.4,1.4,0,0,1-1.013-.428,1.359,1.359,0,0,1-.449-1.042,1.324,1.324,0,0,1,.449-1.024,1.347,1.347,0,0,1,1.013-.426" transform="translate(-1154.877 -714.953)" fill="#fff"/>
  <path id="Trazado_40" data-name="Trazado 40" d="M1355.47,859.867l-1.078,1.887a3.339,3.339,0,0,0-2.382-.84,2.831,2.831,0,0,0-2.261.95,3.877,3.877,0,0,0-.822,2.629c0,2.253,1.079,3.394,3.236,3.394a3.6,3.6,0,0,0,2.452-.934l.938,1.994a6.878,6.878,0,0,1-1.9.847,8.769,8.769,0,0,1-1.942.179,5.235,5.235,0,0,1-3.941-1.462,6.284,6.284,0,0,1,.131-8.128,5.9,5.9,0,0,1,4.3-1.567,5.337,5.337,0,0,1,3.271,1.046" transform="translate(-1182.97 -732.989)" fill="#fff"/>
  <path id="Trazado_41" data-name="Trazado 41" d="M1404.779,864.4a5.652,5.652,0,0,1,1.438-4.005,4.8,4.8,0,0,1,3.746-1.547,4.928,4.928,0,0,1,3.816,1.492,6.812,6.812,0,0,1-.039,8.147,5.453,5.453,0,0,1-7.585-.013,5.956,5.956,0,0,1-1.372-4.073m2.624,0c0,2.368.845,3.556,2.557,3.556a2.251,2.251,0,0,0,1.868-.924,4.488,4.488,0,0,0,.681-2.632c0-2.336-.857-3.5-2.549-3.5a2.213,2.213,0,0,0-1.879.913,4.251,4.251,0,0,0-.678,2.584" transform="translate(-1230.901 -733.018)" fill="#fff"/>
</svg>
