<svg id="Capa_1" data-name="Capa 1" xmlns="http://www.w3.org/2000/svg" viewBox="0 0 1044.32 762.44"><defs><style>.cls-1{fill:#e87307;}.cls-2{fill:#fff;}.cls-3{fill:#0187a3;}</style></defs><path class="cls-1" d="M438,158.56h84.44V589.74c0,23,15.07,36.29,31.94,36.29h146V683.5H478.07c-24.15-2.92-40.35-13-40.35-47.33Z" transform="translate(-437.72 -158.56)"/><path class="cls-1" d="M1316,506.24V366.66c-1.57-21.9,11.23-35.12,33.49-34.91h79.48c22.79-.21,35.23,13,33.45,34.91v140c-.3,22.33-11.48,30.87-28.44,30V636.9c-.93,24.4-10.31,43.16-32,46.64l-23.71.26c-28-7.13-32.15-26.11-33.09-46.9l.26-99.78C1322,535.68,1316,523,1316,506.24" transform="translate(-437.72 -158.56)"/><path class="cls-1" d="M1154.71,335.48c-15.16,5.29-30.44,15.2-45.42,30.44l.68-5-.62-27.75-83.74.11V801.54h85V655.83c42.13,28.08,94.87,44.65,136.4-7.26,91.88-154.29,14-350.42-92.27-313.09m6.06,266.57c-28.73,0-52.08-42.15-52.08-94s23.35-94,52.08-94,52.17,42.07,52.17,94-23.39,94-52.17,94" transform="translate(-437.72 -158.56)"/><path class="cls-1" d="M756.71,361.33l-1.3,85.27c51.57-57.83,148.88-49.85,149.86,30.83-106.91-80.93-206,18.41-168.73,134.12,30.3,72.84,99.67,93.58,168.33,44.79v28.92h87.92V437.88C984.35,337,845.45,305.19,756.71,361.33m132.73,216.1c-2.66,21.47-13,31.41-28.12,32-8.67.09-17.67.28-27.33,0-17.19-1.16-26.39-12.7-30.26-29.81a122.49,122.49,0,0,1-.31-23.28c2.82-17.51,12.7-28.94,31.35-32.94a136.66,136.66,0,0,1,22.89,0c17.67,3.35,29.12,12,31.78,28a93.37,93.37,0,0,1,0,26" transform="translate(-437.72 -158.56)"/><path class="cls-1" d="M463.34,715.27H967.93a25.57,25.57,0,0,1,25.31,25.45v35.73a25.58,25.58,0,0,1-25.31,25.47H463.34A25.57,25.57,0,0,1,438,776.45V740.72a25.57,25.57,0,0,1,25.39-25.45" transform="translate(-437.72 -158.56)"/><path class="cls-1" d="M1439.43,267.19a51.21,51.21,0,1,1-51.24-51.12,51.29,51.29,0,0,1,51.24,51.12" transform="translate(-437.72 -158.56)"/><path class="cls-1" d="M1462.85,642.79A19.2,19.2,0,1,0,1482,662a19.29,19.29,0,0,0-19.19-19.21m0,35.32A16.09,16.09,0,1,1,1479,662a16.08,16.08,0,0,1-16.12,16.11" transform="translate(-437.72 -158.56)"/><path class="cls-1" d="M1454,673.74V650.1h10.48a13.7,13.7,0,0,1,4.78.63,5,5,0,0,1,2.61,2.21,6.17,6.17,0,0,1,1,3.61,5.61,5.61,0,0,1-1.61,4.22,7.91,7.91,0,0,1-5,2.18,5.27,5.27,0,0,1,1.81,1.15,15.4,15.4,0,0,1,2.67,3.27l4.14,6.37H1471l-3.27-5a20.65,20.65,0,0,0-2.21-3.22A8.89,8.89,0,0,0,1464,664a4.44,4.44,0,0,0-1.4-.64c-.42,0-1,0-1.87,0h-3.52v10.44Zm3.18-13.24h6.71a10.68,10.68,0,0,0,3.35-.43,3.1,3.1,0,0,0,1.8-1.46,3.5,3.5,0,0,0,.62-2.06,3.59,3.59,0,0,0-1.19-2.77,5.88,5.88,0,0,0-3.8-1.07h-7.49Z" transform="translate(-437.72 -158.56)"/><path class="cls-2" d="M468.91,781.55l2.87-7.33a22.24,22.24,0,0,0,5.57,2.73,17.21,17.21,0,0,0,6,1.08,10.79,10.79,0,0,0,7.4-2.51,8.64,8.64,0,0,0,2.76-6.43,10.13,10.13,0,0,0-1.6-5.49c-1-1.6-3.67-3.44-7.78-5.42L479.43,756c-4-1.82-6.81-4-8.36-6.51a18,18,0,0,1-2.3-9.19,13.76,13.76,0,0,1,4.6-10.7,16.53,16.53,0,0,1,11.7-4.26c6.47,0,10.92,1,13.49,3.09l-2.39,6.94a21,21,0,0,0-4.81-2.24,22.37,22.37,0,0,0-6-1.09,8.85,8.85,0,0,0-6.37,2.27,8.08,8.08,0,0,0-2.32,5.94,8.59,8.59,0,0,0,.83,4,7.48,7.48,0,0,0,2.34,3.06,30.26,30.26,0,0,0,6,3.43l4.76,2.26c3.93,1.88,6.69,4.06,8.31,6.69a19.05,19.05,0,0,1,2.28,9.85,14.39,14.39,0,0,1-5.15,11.12c-3.51,3.06-8.21,4.59-14,4.59a23.53,23.53,0,0,1-13.18-3.65" transform="translate(-437.72 -158.56)"/><path class="cls-2" d="M533.87,779.35c-3.14,3.71-7.67,5.59-13.83,5.59a11.58,11.58,0,0,1-8.63-3.61,12,12,0,0,1-3.75-9c0-4.27,2-7.89,5.69-10.91s8.57-4.46,14.36-4.46a16.62,16.62,0,0,1,5.33,1.07c0-6.9-3-10.29-9.14-10.29-4.71,0-8.32,1.31-10.88,3.81l-3.18-6.34a19.21,19.21,0,0,1,6-3A26.51,26.51,0,0,1,523,741c6.16,0,10.67,1.39,13.36,4.24,2.84,2.78,4.19,7.21,4.19,13.33v15.17c0,3.72,1.15,6.12,3.29,7.41v3.77c-3,0-5.27-.38-6.8-1.31a7.18,7.18,0,0,1-3.19-4.28m-.83-16a28.84,28.84,0,0,0-5-.82,13.89,13.89,0,0,0-9.2,3,8.51,8.51,0,0,0-3.66,6.83c0,4.46,2.68,6.7,7.85,6.7,3.76,0,7.1-1.88,10-5.51Z" transform="translate(-437.72 -158.56)"/><path class="cls-2" d="M553,772.17V724.46h7.57v46.43a6.94,6.94,0,0,0,2,5.38,6.72,6.72,0,0,0,5,2v6.7c-9.72,0-14.57-4.2-14.57-12.77" transform="translate(-437.72 -158.56)"/><path class="cls-2" d="M583.37,741.9v26.94c0,6.51,2.88,9.86,8.5,9.86a11.15,11.15,0,0,0,6.82-2.25,10,10,0,0,0,4.12-4.92V741.9h7.41v42.24h-7.41v-5.79a12.61,12.61,0,0,1-5.07,4.56,16.49,16.49,0,0,1-7.54,2c-4.63,0-8.15-1.31-10.63-4s-3.67-6.46-3.67-11.35V741.9Z" transform="translate(-437.72 -158.56)"/><path class="cls-2" d="M647.33,784.14V781c-2.62,2.65-6.36,4-11.35,4a16.08,16.08,0,0,1-12.85-5.72c-3.34-3.78-5-8.88-5-15.18a24.26,24.26,0,0,1,5.68-16.25c3.78-4.53,8.33-6.77,13.49-6.77,4.38,0,7.74,1.06,10,3.16V724.46h7.58v59.68Zm0-32.49a8.92,8.92,0,0,0-7.77-4.31,12.07,12.07,0,0,0-9.72,4.54c-2.52,3-3.76,6.83-3.76,11.49,0,10.16,4.59,15.3,13.89,15.3a10,10,0,0,0,4.16-1.11c1.79-.79,2.79-1.61,3.2-2.51Z" transform="translate(-437.72 -158.56)"/><rect class="cls-2" x="254.23" y="567.74" width="7.9" height="57.84"/><path class="cls-2" d="M738.57,784.14V759.52c0-4.5-.67-7.67-2-9.47s-3.54-2.76-6.79-2.76a12.74,12.74,0,0,0-5.44,1.58,12.59,12.59,0,0,0-4.28,3.86v31.41H712.6V741.9h5l2.42,5.39c2.5-4.21,6.49-6.27,12.16-6.27,9.36,0,14,5.66,14,17v26.17Z" transform="translate(-437.72 -158.56)"/><path class="cls-2" d="M759.41,747.79h-4.84V741.9h4.84v-9l7.55-2.8V741.9h11.6v5.89H767v21c0,3.6.5,6.13,1.76,7.57a7.12,7.12,0,0,0,5.81,2.32,14.87,14.87,0,0,0,6-1.47l1.05,6.56a40.65,40.65,0,0,1-10.23,1.18,11.15,11.15,0,0,1-8.48-3.73,14,14,0,0,1-3.46-9.42Z" transform="translate(-437.72 -158.56)"/><path class="cls-2" d="M824.49,763.72H794c0,4.94,1.29,8.77,4.07,11.38a12.51,12.51,0,0,0,9.29,3.57,15.9,15.9,0,0,0,10.67-3.76l3.15,5.42a12.56,12.56,0,0,1-5.36,2.92,27.27,27.27,0,0,1-10,1.69,18.57,18.57,0,0,1-13.53-5.34c-4.16-4-6.27-9.42-6.27-16q0-10.56,6.36-16.86A18.49,18.49,0,0,1,805.93,741c6.08,0,10.77,1.78,14.22,5.13a17.79,17.79,0,0,1,5,13,13.88,13.88,0,0,1-.67,4.56m-18.21-16.38a12.19,12.19,0,0,0-8.39,3.18,13.41,13.41,0,0,0-3.77,7.77h23.53a10.9,10.9,0,0,0-2.77-7.6,11.66,11.66,0,0,0-8.6-3.35" transform="translate(-437.72 -158.56)"/><path class="cls-2" d="M831.49,795.73l4-6c4.39,2.93,8.36,4.37,12.11,4.37a16.1,16.1,0,0,0,8-1.7c2-1.24,3-2.67,3-4.45,0-3.4-2.48-5.05-7.44-5.05a26.69,26.69,0,0,0-4.57.57,37.55,37.55,0,0,1-5.14.66c-6.08,0-9.06-2.25-9.06-6.77a4.78,4.78,0,0,1,2.09-3.84,12.38,12.38,0,0,1,5.29-2.44c-6-2.85-9-7.62-9-14.56a14.68,14.68,0,0,1,4.57-11.06A16.09,16.09,0,0,1,846.78,741q6.3,0,9.89,2.63l3.73-4.55,4.91,4.61-4.5,3.38a15.88,15.88,0,0,1,2.91,9.89,15.3,15.3,0,0,1-14.45,15.61l-6.28.73a15.15,15.15,0,0,0-3,.84c-1.2.47-1.84,1.11-1.84,1.87,0,1.1,1.3,1.7,3.81,1.7a33.71,33.71,0,0,0,5.38-.64,33.72,33.72,0,0,1,5.28-.64c4.23,0,7.42,1,9.72,2.93a10.37,10.37,0,0,1,3.66,8.36c0,3.87-1.78,7-5.32,9.45a23.29,23.29,0,0,1-13.23,3.58,28.26,28.26,0,0,1-8.66-1.43,23.5,23.5,0,0,1-7.33-3.61m16-48.64a8.33,8.33,0,0,0-6.49,2.73,10,10,0,0,0-2.45,6.71,11.08,11.08,0,0,0,2.4,7.32,7.72,7.72,0,0,0,6.54,2.95,7.24,7.24,0,0,0,6.1-2.76c1.59-2,2.22-4.4,2.22-7.51a9.16,9.16,0,0,0-2.42-6.71,7.46,7.46,0,0,0-5.9-2.73" transform="translate(-437.72 -158.56)"/><path class="cls-2" d="M896.66,749.1a9.26,9.26,0,0,0-4.93-1.76c-2.7,0-5,1.32-7,3.73a13.27,13.27,0,0,0-3,8.9v24.17H874.3V741.9h7.39v6.76C884.42,743.6,888.6,741,894,741a37.25,37.25,0,0,1,5.81.76Z" transform="translate(-437.72 -158.56)"/><path class="cls-2" d="M929.07,779.35c-3.06,3.71-7.71,5.59-13.87,5.59a11.78,11.78,0,0,1-8.62-3.61,12.28,12.28,0,0,1-3.75-9c0-4.27,2-7.89,5.68-10.91s8.63-4.46,14.38-4.46a16.66,16.66,0,0,1,5.42,1.07c0-6.9-3.14-10.29-9.18-10.29-4.64,0-8.33,1.31-10.82,3.81l-3.19-6.34a17.85,17.85,0,0,1,6-3A25.4,25.4,0,0,1,918.3,741c6.16,0,10.66,1.39,13.36,4.24s4.18,7.21,4.18,13.33v15.17c0,3.72,1.1,6.12,3.35,7.41v3.77c-3,0-5.32-.38-6.89-1.31a7.27,7.27,0,0,1-3.23-4.28m-.76-16a30.53,30.53,0,0,0-5-.82,14.2,14.2,0,0,0-9.3,3,8.69,8.69,0,0,0-3.49,6.83c0,4.46,2.54,6.7,7.79,6.7,3.75,0,7.08-1.88,10-5.51Z" transform="translate(-437.72 -158.56)"/><path class="cls-2" d="M948.24,772.17V724.46h7.47v46.43a6.9,6.9,0,0,0,2,5.38,7,7,0,0,0,5.12,2v6.7c-9.64,0-14.56-4.2-14.56-12.77" transform="translate(-437.72 -158.56)"/><polygon class="cls-3" points="7.32 761.27 7.32 679.43 21.86 679.43 21.86 748.34 58.83 748.34 58.83 761.27 7.32 761.27"/><path class="cls-3" d="M540.7,913.81c-1.21,2.09-3.44,3.81-6.67,5.16a24.72,24.72,0,0,1-9.77,2c-6.45,0-11.51-1.6-15.14-4.84s-5.56-7.76-5.56-13.73c0-6.92,2.54-12.33,7.77-16.31s12.51-5.8,22.17-5.8a24.76,24.76,0,0,1,5.84.82c0-7.06-4.5-10.59-13.36-10.59a30.3,30.3,0,0,0-13.23,2.66l-3-10.84a39.42,39.42,0,0,1,17.16-3.46c9.19,0,15.83,2.09,20.07,6.23s6.37,12,6.37,23.63v12.75c0,8.08,1.66,13,4.74,15a7,7,0,0,1-3.79,3.71,15,15,0,0,1-4.8.72,7.92,7.92,0,0,1-5.48-2.22,12.73,12.73,0,0,1-3.29-4.91m-1.24-22.21a35.12,35.12,0,0,0-5.43-.68c-11,0-16.54,3.62-16.54,10.83,0,5.36,3.13,8.1,9.39,8.1q12.57,0,12.58-12.57Z" transform="translate(-437.72 -158.56)"/><path class="cls-3" d="M578.23,916.51l-3.06,4.43h-7.84V837.63l14-3.32v28a22.66,22.66,0,0,1,12.16-3.43c8.67,0,15.82,2.79,21.18,8.3s8,12.63,8,21.26c0,10-2.68,18-8.11,23.8s-12.73,8.73-21.9,8.73a24.17,24.17,0,0,1-14.44-4.43m3.09-42.29v31.25a10.23,10.23,0,0,0,8.32,3.61c6.72,0,11.49-1.54,14.34-4.78s4.22-8.32,4.22-15.39c0-12.11-5.83-18.26-17.46-18.26-4.12,0-7.3,1.2-9.42,3.57" transform="translate(-437.72 -158.56)"/><path class="cls-3" d="M631.06,889.75c0-9.13,2.68-16.55,7.92-22.29s12.21-8.61,20.9-8.61c9.08,0,16.13,2.79,21.19,8.3s7.51,13,7.51,22.6-2.57,17.09-7.72,22.74-12.2,8.51-21,8.51c-9.11,0-16.21-2.93-21.3-8.58s-7.52-13.28-7.52-22.67m14.53,0c0,13.18,4.74,19.79,14.29,19.79a12.37,12.37,0,0,0,10.39-5.14c2.5-3.42,3.77-8.34,3.77-14.65,0-13-4.75-19.46-14.16-19.46a12.33,12.33,0,0,0-10.41,5.08c-2.63,3.45-3.88,8.23-3.88,14.38" transform="translate(-437.72 -158.56)"/><path class="cls-3" d="M734.33,873a15,15,0,0,0-8.21-2.46c-3.28,0-6.1,1.52-8.58,4.43a16,16,0,0,0-3.8,10.86v34.05h-14V860h14v5.49c3.9-4.44,9.1-6.55,15.56-6.55,4.84,0,8.36.65,11,2.11Z" transform="translate(-437.72 -158.56)"/><path class="cls-3" d="M778.35,913.81c-1.24,2.09-3.44,3.81-6.57,5.16a25.51,25.51,0,0,1-9.91,2c-6.44,0-11.49-1.6-15.18-4.84s-5.49-7.76-5.49-13.73c0-6.92,2.51-12.33,7.77-16.31s12.55-5.8,22.2-5.8a24.36,24.36,0,0,1,5.75.82q0-10.59-13.37-10.59a30.52,30.52,0,0,0-13.17,2.66l-3-10.84a39.39,39.39,0,0,1,17.14-3.46c9.18,0,15.86,2.09,20.09,6.23s6.34,12,6.34,23.63v12.75c0,8.08,1.62,13,4.85,15-1.2,2.06-2.42,3.28-3.88,3.71a15.4,15.4,0,0,1-4.89.72,7.75,7.75,0,0,1-5.36-2.22,12.22,12.22,0,0,1-3.3-4.91M777,891.6a33.14,33.14,0,0,0-5.35-.68c-11,0-16.55,3.62-16.55,10.83,0,5.36,3.12,8.1,9.34,8.1,8.41,0,12.56-4.2,12.56-12.57Z" transform="translate(-437.72 -158.56)"/><path class="cls-3" d="M808.15,871.19h-6.91V860h6.91V847.77l14-5.14V860h16.44v11.19H822.13v26.19c0,4.34.65,7.29,2.1,9,1.27,1.85,3.59,2.7,6.88,2.7a17.51,17.51,0,0,0,9.49-2.72v12.81c-3.23,1.23-7.86,1.72-13.93,1.72-5.86,0-10.59-1.72-13.67-5.08s-4.85-8.15-4.85-14.4Z" transform="translate(-437.72 -158.56)"/><path class="cls-3" d="M847.55,889.75q0-13.69,7.87-22.29c5.25-5.75,12.11-8.61,20.88-8.61,9.13,0,16.17,2.79,21.18,8.3s7.54,13,7.54,22.6-2.59,17.09-7.62,22.74c-5.19,5.62-12.16,8.51-21.1,8.51s-16.13-2.93-21.19-8.58-7.56-13.28-7.56-22.67m14.49,0c0,13.18,4.73,19.79,14.26,19.79a12.28,12.28,0,0,0,10.41-5.14c2.42-3.42,3.77-8.34,3.77-14.65,0-13-4.8-19.46-14.18-19.46a12.43,12.43,0,0,0-10.44,5.08c-2.56,3.45-3.82,8.23-3.82,14.38" transform="translate(-437.72 -158.56)"/><path class="cls-3" d="M950.78,873a15,15,0,0,0-8.18-2.46c-3.23,0-6.15,1.52-8.69,4.43a16.63,16.63,0,0,0-3.72,10.86v34.05h-14V860h14v5.49c3.94-4.44,9.06-6.55,15.53-6.55,4.85,0,8.47.65,11,2.11Z" transform="translate(-437.72 -158.56)"/><path class="cls-3" d="M968.75,919.83V871.44h-7.58V860H983v59.83Zm7.36-83a8.09,8.09,0,0,1,5.73,2.37,8,8,0,0,1,2.32,5.7,8.2,8.2,0,0,1-2.32,5.8,8.4,8.4,0,0,1-5.73,2.38,8,8,0,0,1-5.75-2.38,7.93,7.93,0,0,1-2.43-5.8,8.2,8.2,0,0,1,8.18-8.07" transform="translate(-437.72 -158.56)"/><path class="cls-3" d="M995.32,889.75c0-9.13,2.67-16.55,7.91-22.29s12.23-8.61,20.9-8.61c9,0,16.11,2.79,21.19,8.3s7.52,13,7.52,22.6-2.56,17.09-7.73,22.74-12,8.51-21,8.51c-9.1,0-16.14-2.93-21.28-8.58s-7.53-13.28-7.53-22.67m14.53,0c0,13.18,4.74,19.79,14.28,19.79a12.42,12.42,0,0,0,10.41-5.14c2.5-3.42,3.77-8.34,3.77-14.65,0-13-4.75-19.46-14.18-19.46a12.26,12.26,0,0,0-10.38,5.08c-2.63,3.45-3.9,8.23-3.9,14.38" transform="translate(-437.72 -158.56)"/><polygon class="cls-3" points="737.91 761.31 723.94 761.31 715.37 717.22 698.92 762.44 693.78 762.44 677.22 717.22 668.35 761.31 654.38 761.31 670.81 679.43 678.53 679.43 696.19 734.53 713.53 679.43 721.33 679.43 737.91 761.31"/><path class="cls-3" d="M1237.18,894.16h-42.72c.31,4.73,1.86,8.46,4.94,11.12s7,4,12.17,4c6.33,0,11.23-1.72,14.5-5l5.54,10.67c-5,4-12.42,6-22,6-9.18,0-16.51-2.66-21.72-8.09-5.28-5.27-7.91-12.69-7.91-22.32,0-9.38,2.83-17,8.67-22.86a28.49,28.49,0,0,1,21-8.82c8.73,0,15.7,2.55,20.92,7.75s7.87,11.81,7.87,19.84a33.43,33.43,0,0,1-1.17,7.72M1195,883.73h29.39c-1-8.81-5.78-13.24-14.47-13.24-8.08,0-13,4.43-14.92,13.24m31.37-48.15L1213.72,852h-10.57l9.49-16.39Z" transform="translate(-437.72 -158.56)"/><path class="cls-3" d="M1288.1,919.83v-3.61a15.47,15.47,0,0,1-5.86,3.28,25.46,25.46,0,0,1-8.57,1.44c-8.38,0-14.93-2.58-19.73-7.94s-7.21-12.64-7.21-22.18,2.77-17.11,8.17-23a27.27,27.27,0,0,1,20.8-8.94,27.61,27.61,0,0,1,12.4,2.79v-24l14-3.32v85.52Zm0-45.57a14.78,14.78,0,0,0-9.37-3.61c-5.65,0-9.91,1.75-13,5.13s-4.52,8.28-4.52,14.75c0,12.4,6,18.6,18,18.6a14.78,14.78,0,0,0,5-1.14,11.55,11.55,0,0,0,3.9-2.48Z" transform="translate(-437.72 -158.56)"/><path class="cls-3" d="M1319.67,919.83V871.44h-7.58V860h21.82v59.83Zm7.27-83a8,8,0,0,1,5.76,2.37,7.72,7.72,0,0,1,2.38,5.7,7.93,7.93,0,0,1-2.38,5.8,8.26,8.26,0,0,1-5.76,2.38,7.75,7.75,0,0,1-5.63-2.38,7.53,7.53,0,0,1-2.5-5.8,7.34,7.34,0,0,1,2.5-5.7,7.48,7.48,0,0,1,5.63-2.37" transform="translate(-437.72 -158.56)"/><path class="cls-3" d="M1397.12,864.67l-6,10.5c-3.36-3.12-7.7-4.68-13.24-4.68-5.24,0-9.49,1.7-12.58,5.29s-4.57,8.42-4.57,14.63c0,12.54,6,18.89,18,18.89a20,20,0,0,0,13.64-5.2l5.21,11.1a38.14,38.14,0,0,1-10.59,4.71,48.53,48.53,0,0,1-10.8,1c-9.32,0-16.56-2.66-21.92-8.14s-7.93-12.85-7.93-22.39c0-9.38,2.81-17.09,8.66-22.84s13.86-8.72,23.94-8.72a29.66,29.66,0,0,1,18.19,5.82" transform="translate(-437.72 -158.56)"/><path class="cls-3" d="M1404.78,889.75q0-13.69,8-22.29,7.8-8.62,20.83-8.61c9.1,0,16.15,2.79,21.23,8.3,4.92,5.45,7.41,13,7.41,22.6s-2.49,17.09-7.64,22.74-12.1,8.51-21,8.51c-9.08,0-16.18-2.93-21.18-8.58s-7.63-13.28-7.63-22.67m14.59,0c0,13.18,4.7,19.79,14.22,19.79A12.52,12.52,0,0,0,1444,904.4c2.44-3.42,3.79-8.34,3.79-14.65,0-13-4.77-19.46-14.18-19.46a12.31,12.31,0,0,0-10.45,5.08c-2.56,3.45-3.77,8.23-3.77,14.38" transform="translate(-437.72 -158.56)"/></svg>